<?xml version="1.0" encoding="UTF-8" standalone="no"?>
<svg
   xmlns:dc="http://purl.org/dc/elements/1.1/"
   xmlns:cc="http://creativecommons.org/ns#"
   xmlns:rdf="http://www.w3.org/1999/02/22-rdf-syntax-ns#"
   xmlns:svg="http://www.w3.org/2000/svg"
   xmlns="http://www.w3.org/2000/svg"
   xmlns:sodipodi="http://sodipodi.sourceforge.net/DTD/sodipodi-0.dtd"
   xmlns:inkscape="http://www.inkscape.org/namespaces/inkscape"
   width="66"
   height="73"
   viewBox="0 0 66 73"
   fill="none"
   version="1.1"
   id="svg29"
   sodipodi:docname="Logo.svg"
   inkscape:version="1.0.1 (3bc2e813f5, 2020-09-07)">
  <metadata
     id="metadata33">
    <rdf:RDF>
      <cc:Work
         rdf:about="">
        <dc:format>image/svg+xml</dc:format>
        <dc:type
           rdf:resource="http://purl.org/dc/dcmitype/StillImage" />
        <dc:title></dc:title>
      </cc:Work>
    </rdf:RDF>
  </metadata>
  <sodipodi:namedview
     pagecolor="#ffffff"
     bordercolor="#666666"
     borderopacity="1"
     objecttolerance="10"
     gridtolerance="10"
     guidetolerance="10"
     inkscape:pageopacity="0"
     inkscape:pageshadow="2"
     inkscape:window-width="1920"
     inkscape:window-height="1017"
     id="namedview31"
     showgrid="false"
     inkscape:zoom="4.0333791"
     inkscape:cx="128"
     inkscape:cy="36.5"
     inkscape:window-x="-8"
     inkscape:window-y="-8"
     inkscape:window-maximized="1"
     inkscape:current-layer="svg29" />
  <path
     d="M 64,50.3028 V 22.6972 C 63.9988,21.4869 63.6799,20.2983 63.0753,19.2505 62.4707,18.2027 61.6018,17.3326 60.5556,16.7274 L 36.4444,2.92461 C 35.3972,2.31889 34.2093,2 33,2 31.7907,2 30.6028,2.31889 29.5556,2.92461 L 5.44444,16.7274 C 4.39824,17.3326 3.52926,18.2027 2.9247,19.2505 2.32014,20.2983 2.00124,21.4869 2,22.6972 v 27.6056 c 0.00124,1.2103 0.32014,2.3989 0.9247,3.4467 0.60456,1.0478 1.47354,1.9179 2.51974,2.5231 L 29.5556,70.0754 C 30.6028,70.6811 31.7907,71 33,71 c 1.2093,0 2.3972,-0.3189 3.4444,-0.9246 L 60.5556,56.2726 c 1.0462,-0.6052 1.9151,-1.4753 2.5197,-2.5231 0.6046,-1.0478 0.9235,-2.2364 0.9247,-3.4467 z"
     stroke="#dd0c3d"
     stroke-width="4"
     stroke-linecap="round"
     stroke-linejoin="round"
     id="path2" />
  <path
     d="M 3,19 33,36 63,19"
     stroke="#dd0c3d"
     stroke-width="4"
     stroke-linecap="round"
     stroke-linejoin="round"
     id="path4" />
  <path
     d="M 33,71 V 36"
     stroke="#dd0c3d"
     stroke-width="4"
     stroke-linecap="round"
     stroke-linejoin="round"
     id="path6" />
  <defs
     id="defs27">
    <filter
       id="filter0_d"
       x="82.562599"
       y="15.5962"
       width="91.804802"
       height="44.451599"
       filterUnits="userSpaceOnUse"
       color-interpolation-filters="sRGB">
      <feFlood
         flood-opacity="0"
         result="BackgroundImageFix"
         id="feFlood12" />
      <feColorMatrix
         in="SourceAlpha"
         type="matrix"
         values="0 0 0 0 0 0 0 0 0 0 0 0 0 0 0 0 0 0 127 0"
         id="feColorMatrix14" />
      <feOffset
         id="feOffset16" />
      <feGaussianBlur
         stdDeviation="5.28086"
         id="feGaussianBlur18" />
      <feColorMatrix
         type="matrix"
         values="0 0 0 0 0 0 0 0 0 0 0 0 0 0 0 0 0 0 0.25 0"
         id="feColorMatrix20" />
      <feBlend
         mode="normal"
         in2="BackgroundImageFix"
         result="effect1_dropShadow"
         id="feBlend22" />
      <feBlend
         mode="normal"
         in="SourceGraphic"
         in2="effect1_dropShadow"
         result="shape"
         id="feBlend24" />
    </filter>
  </defs>
</svg>
