<?xml version="1.0" encoding="UTF-8" standalone="no"?>
<svg
   xmlns:dc="http://purl.org/dc/elements/1.1/"
   xmlns:cc="http://creativecommons.org/ns#"
   xmlns:rdf="http://www.w3.org/1999/02/22-rdf-syntax-ns#"
   xmlns:svg="http://www.w3.org/2000/svg"
   xmlns="http://www.w3.org/2000/svg"
   xmlns:sodipodi="http://sodipodi.sourceforge.net/DTD/sodipodi-0.dtd"
   xmlns:inkscape="http://www.inkscape.org/namespaces/inkscape"
   width="1025"
   height="1192"
   viewBox="0 0 1025 1192"
   fill="none"
   version="1.1"
   id="svg8"
   sodipodi:docname="background.svg"
   inkscape:version="1.0.1 (3bc2e813f5, 2020-09-07)">
  <metadata
     id="metadata14">
    <rdf:RDF>
      <cc:Work
         rdf:about="">
        <dc:format>image/svg+xml</dc:format>
        <dc:type
           rdf:resource="http://purl.org/dc/dcmitype/StillImage" />
      </cc:Work>
    </rdf:RDF>
  </metadata>
  <defs
     id="defs12" />
  <sodipodi:namedview
     pagecolor="#ffffff"
     bordercolor="#666666"
     borderopacity="1"
     objecttolerance="10"
     gridtolerance="10"
     guidetolerance="10"
     inkscape:pageopacity="0"
     inkscape:pageshadow="2"
     inkscape:window-width="1920"
     inkscape:window-height="1017"
     id="namedview10"
     showgrid="false"
     inkscape:zoom="0.69095499"
     inkscape:cx="512.5"
     inkscape:cy="596"
     inkscape:window-x="-8"
     inkscape:window-y="-8"
     inkscape:window-maximized="1"
     inkscape:current-layer="svg8"
     inkscape:document-rotation="0" />
  <rect
     width="1070.9974"
     height="1192"
     rx="5.2294803"
     fill="#0f0f0f"
     id="rect2"
     x="-20.257414"
     y="0"
     style="stroke-width:1.02269" />
  <rect
     y="572.05377"
     width="1070.9974"
     height="333.38629"
     fill="#131313"
     id="rect4"
     x="-20.257414"
     style="stroke-width:0.966855" />
  <path
     fill-rule="evenodd"
     clip-rule="evenodd"
     d="m -20.257414,400.29001 59.85579,24.34471 c 58.962178,24.34471 178.674384,73.03413 297.492344,73.03413 118.81797,0 238.52913,-48.68942 357.34708,-68.16557 118.81903,-19.47519 238.53018,-9.73809 297.49256,-4.86856 l 59.85554,4.86856 V 634 h -59.85554 c -58.96238,0 -178.67353,0 -297.49256,0 -118.81795,0 -238.52911,0 -357.34708,0 -118.81796,0 -238.530166,0 -297.492344,0 h -59.85579 z"
     fill="#131313"
     id="path6"
     style="stroke-width:1.00614" />
  <path
     fill-rule="evenodd"
     clip-rule="evenodd"
     d="m 1050.9045,952.20081 -59.87292,-7.01403 c -58.9793,-7.0142 -178.7257,-21.04229 -297.5437,-21.01968 -118.8179,0.0226 -238.49476,14.09623 -357.29908,19.73931 -118.80527,5.64277 -238.52318,2.85559 -297.489,1.46156 l -59.85893,-1.39357 -0.1439,-59.01393 59.85549,-0.0114 c 58.96239,-0.0112 178.67345,-0.034 297.49242,-0.0566 118.81803,-0.0226 238.52916,-0.0453 357.3471,-0.068 118.8179,-0.0226 238.5301,-0.0454 297.4923,-0.0566 l 59.85572,-0.0114 z"
     fill="#131313"
     id="path6-9"
     style="stroke-width:0.540498" />
</svg>
