<svg width="256" height="73" viewBox="0 0 256 73" fill="none" xmlns="http://www.w3.org/2000/svg">
<path d="M64 50.3028V22.6972C63.9988 21.4869 63.6799 20.2983 63.0753 19.2505C62.4707 18.2027 61.6018 17.3326 60.5556 16.7274L36.4444 2.92461C35.3972 2.31889 34.2093 2 33 2C31.7907 2 30.6028 2.31889 29.5556 2.92461L5.44444 16.7274C4.39824 17.3326 3.52926 18.2027 2.9247 19.2505C2.32014 20.2983 2.00124 21.4869 2 22.6972V50.3028C2.00124 51.5131 2.32014 52.7017 2.9247 53.7495C3.52926 54.7973 4.39824 55.6674 5.44444 56.2726L29.5556 70.0754C30.6028 70.6811 31.7907 71 33 71C34.2093 71 35.3972 70.6811 36.4444 70.0754L60.5556 56.2726C61.6018 55.6674 62.4707 54.7973 63.0753 53.7495C63.6799 52.7017 63.9988 51.5131 64 50.3028Z" stroke="#DD0C3D" stroke-width="4" stroke-linecap="round" stroke-linejoin="round"/>
<path d="M3 19L33 36L63 19" stroke="#DD0C3D" stroke-width="4" stroke-linecap="round" stroke-linejoin="round"/>
<path d="M33 71V36" stroke="#DD0C3D" stroke-width="4" stroke-linecap="round" stroke-linejoin="round"/>
<g filter="url(#filter0_d)">
<path d="M95.9362 48.9306C95.8205 48.9769 95.6469 49.0231 95.4155 49.0694C95.184 49.1389 94.9295 49.1736 94.6517 49.1736C93.6334 49.1736 93.1243 48.7454 93.1243 47.8891V27.9631C93.24 27.9168 93.4136 27.8705 93.645 27.8242C93.8996 27.7548 94.1657 27.72 94.4434 27.72C95.4386 27.72 95.9362 28.1482 95.9362 29.0045V48.9306ZM107.174 49.4513C105.554 49.4513 104.235 49.0926 103.216 48.3751C102.221 47.6577 101.724 46.4658 101.724 44.7996V28.3102C101.839 28.2639 102.013 28.2176 102.244 28.1713C102.499 28.1019 102.765 28.0672 103.043 28.0672C104.015 28.0672 104.501 28.4838 104.501 29.3169V33.3091H110.194C110.263 33.4248 110.333 33.5868 110.402 33.7951C110.472 33.9802 110.506 34.1885 110.506 34.4199C110.506 35.2068 110.159 35.6002 109.465 35.6002H104.501V44.626C104.501 45.5517 104.755 46.2113 105.265 46.6047C105.797 46.975 106.537 47.1601 107.486 47.1601C107.88 47.1601 108.319 47.0907 108.805 46.9518C109.291 46.813 109.696 46.651 110.02 46.4658C110.159 46.6047 110.287 46.7783 110.402 46.9866C110.518 47.1948 110.576 47.4379 110.576 47.7156C110.576 48.2247 110.275 48.6413 109.673 48.9653C109.072 49.2893 108.238 49.4513 107.174 49.4513ZM120.536 47.1948C121.509 47.1948 122.307 47.1023 122.932 46.9171C123.58 46.7088 124.043 46.5121 124.32 46.327V41.2934L120.016 41.7447C118.812 41.8604 117.921 42.1381 117.343 42.5778C116.764 42.9944 116.475 43.6193 116.475 44.4524C116.475 45.3318 116.81 46.0146 117.482 46.5006C118.153 46.9634 119.171 47.1948 120.536 47.1948ZM120.502 32.5106C122.515 32.5106 124.112 32.9619 125.292 33.8645C126.473 34.7671 127.063 36.1904 127.063 38.1344V46.3617C127.063 46.8708 126.959 47.2643 126.75 47.542C126.565 47.7966 126.276 48.0396 125.883 48.271C125.327 48.595 124.587 48.8727 123.661 49.1041C122.758 49.3587 121.717 49.486 120.536 49.486C118.361 49.486 116.672 49.0579 115.468 48.2016C114.288 47.3453 113.698 46.1071 113.698 44.4871C113.698 42.9597 114.195 41.8141 115.19 41.0504C116.186 40.2635 117.586 39.7775 119.391 39.5924L124.32 39.1064V38.1344C124.32 36.9772 123.973 36.1325 123.279 35.6002C122.585 35.0679 121.647 34.8018 120.467 34.8018C119.495 34.8018 118.581 34.9407 117.725 35.2184C116.868 35.4961 116.105 35.8085 115.433 36.1557C115.248 35.9937 115.075 35.8085 114.913 35.6002C114.774 35.3919 114.704 35.1605 114.704 34.9059C114.704 34.5819 114.785 34.3158 114.947 34.1075C115.109 33.8992 115.364 33.7025 115.711 33.5174C116.336 33.1934 117.053 32.9504 117.863 32.7884C118.673 32.6032 119.553 32.5106 120.502 32.5106ZM152.475 38.0997C152.475 36.9657 152.151 36.1325 151.503 35.6002C150.855 35.0679 149.987 34.8018 148.899 34.8018C147.395 34.8018 146.052 35.3341 144.872 36.3987C145.011 36.8615 145.08 37.3591 145.08 37.8914V48.9306C144.965 48.9769 144.78 49.0231 144.525 49.0694C144.294 49.1389 144.051 49.1736 143.796 49.1736C142.801 49.1736 142.303 48.757 142.303 47.9239V38.0997C142.303 36.9657 141.979 36.1325 141.331 35.6002C140.683 35.0679 139.804 34.8018 138.693 34.8018C137.952 34.8018 137.247 34.9175 136.575 35.1489C135.927 35.3804 135.372 35.6465 134.909 35.9474V48.9306C134.793 48.9769 134.62 49.0231 134.388 49.0694C134.157 49.1389 133.902 49.1736 133.625 49.1736C132.63 49.1736 132.132 48.757 132.132 47.9239V36.0862C132.132 35.6234 132.225 35.2415 132.41 34.9407C132.618 34.6167 132.965 34.2926 133.451 33.9686C134.076 33.5752 134.863 33.2396 135.812 32.9619C136.784 32.6611 137.756 32.5106 138.728 32.5106C139.862 32.5106 140.868 32.6842 141.748 33.0314C142.627 33.3554 143.298 33.8066 143.761 34.3852C144.363 33.8529 145.115 33.4132 146.018 33.0661C146.92 32.6958 147.95 32.5106 149.107 32.5106C150.982 32.5106 152.475 32.9619 153.585 33.8645C154.696 34.7439 155.252 36.1094 155.252 37.9608V48.9306C155.136 48.9769 154.951 49.0231 154.696 49.0694C154.465 49.1389 154.222 49.1736 153.967 49.1736C152.972 49.1736 152.475 48.757 152.475 47.9239V38.0997ZM163.424 48.9306C163.308 48.9769 163.134 49.0231 162.903 49.0694C162.672 49.1389 162.417 49.1736 162.139 49.1736C161.144 49.1736 160.647 48.757 160.647 47.9239V33.0314C160.762 32.9851 160.936 32.9388 161.167 32.8925C161.422 32.8231 161.688 32.7884 161.966 32.7884C162.938 32.7884 163.424 33.2165 163.424 34.0728V48.9306ZM160.23 27.8936C160.23 27.4076 160.392 27.0026 160.716 26.6786C161.063 26.3315 161.503 26.1579 162.035 26.1579C162.567 26.1579 162.996 26.3315 163.32 26.6786C163.644 27.0026 163.806 27.4076 163.806 27.8936C163.806 28.3796 163.644 28.7962 163.32 29.1433C162.996 29.4673 162.567 29.6293 162.035 29.6293C161.503 29.6293 161.063 29.4673 160.716 29.1433C160.392 28.7962 160.23 28.3796 160.23 27.8936Z" fill="#DD0C3D"/>
</g>
<defs>
<filter id="filter0_d" x="82.5626" y="15.5962" width="91.8048" height="44.4516" filterUnits="userSpaceOnUse" color-interpolation-filters="sRGB">
<feFlood flood-opacity="0" result="BackgroundImageFix"/>
<feColorMatrix in="SourceAlpha" type="matrix" values="0 0 0 0 0 0 0 0 0 0 0 0 0 0 0 0 0 0 127 0"/>
<feOffset/>
<feGaussianBlur stdDeviation="5.28086"/>
<feColorMatrix type="matrix" values="0 0 0 0 0 0 0 0 0 0 0 0 0 0 0 0 0 0 0.25 0"/>
<feBlend mode="normal" in2="BackgroundImageFix" result="effect1_dropShadow"/>
<feBlend mode="normal" in="SourceGraphic" in2="effect1_dropShadow" result="shape"/>
</filter>
</defs>
</svg>
