<svg width="85" height="69" viewBox="0 0 85 69" fill="none" xmlns="http://www.w3.org/2000/svg">
<path d="M60.6667 66.5V59.3333C60.6667 55.5319 59.1214 51.8862 56.3709 49.1981C53.6204 46.5101 49.8898 45 46 45H16.6667C12.7768 45 9.0463 46.5101 6.29577 49.1981C3.54523 51.8862 2 55.5319 2 59.3333V66.5" stroke="#DD0C3D" stroke-width="4" stroke-linecap="round" stroke-linejoin="round"/>
<path d="M31.3333 30.6667C39.4335 30.6667 46 24.2494 46 16.3333C46 8.41725 39.4335 2 31.3333 2C23.2331 2 16.6666 8.41725 16.6666 16.3333C16.6666 24.2494 23.2331 30.6667 31.3333 30.6667Z" stroke="#DD0C3D" stroke-width="4" stroke-linecap="round" stroke-linejoin="round"/>
<path d="M82.6666 66.5V59.3333C82.6641 56.1575 81.5825 53.0724 79.5916 50.5624C77.6006 48.0525 74.813 46.2598 71.6666 45.4658" stroke="#DD0C3D" stroke-width="4" stroke-linecap="round" stroke-linejoin="round"/>
<path d="M57.0001 2.46582C60.1549 3.25523 62.9512 5.04833 64.9481 7.56243C66.9449 10.0765 68.0288 13.1686 68.0288 16.3512C68.0288 19.5338 66.9449 22.6259 64.9481 25.14C62.9512 27.6541 60.1549 29.4472 57.0001 30.2367" stroke="#DD0C3D" stroke-width="4" stroke-linecap="round" stroke-linejoin="round"/>
</svg>
